<svg xmlns="http://www.w3.org/2000/svg"  viewBox="0 0 100 100" width="100px" height="100px"><path fill="#fdfcee" d="M69.921,81.654h-39c-6.6,0-12-5.4-12-12v-39c0-6.6,5.4-12,12-12h39c6.6,0,12,5.4,12,12v39C81.921,76.254,76.521,81.654,69.921,81.654z"/><path fill="#1f212b" d="M69.921,82.654h-39c-7.168,0-13-5.832-13-13v-39c0-7.168,5.832-13,13-13h39c7.168,0,13,5.832,13,13v39C82.921,76.822,77.089,82.654,69.921,82.654z M30.921,19.654c-6.065,0-11,4.935-11,11v39c0,6.065,4.935,11,11,11h39c6.065,0,11-4.935,11-11v-39c0-6.065-4.935-11-11-11H30.921z"/><path fill="#fdfcee" d="M77.421,48.154v18.663c0,5.685-4.652,10.337-10.337,10.337H33.758c-5.685,0-10.337-4.652-10.337-10.337V33.491c0-5.685,4.652-10.337,10.337-10.337h33.663"/><path fill="#1f212b" d="M67.084,77.654H33.758c-5.976,0-10.837-4.861-10.837-10.837V33.49c0-5.976,4.861-10.837,10.837-10.837h33.663c0.276,0,0.5,0.224,0.5,0.5s-0.224,0.5-0.5,0.5H33.758c-5.424,0-9.837,4.413-9.837,9.837v33.326c0,5.424,4.413,9.837,9.837,9.837h33.326c5.424,0,9.837-4.413,9.837-9.837V48.154c0-0.276,0.224-0.5,0.5-0.5s0.5,0.224,0.5,0.5v18.663C77.921,72.792,73.06,77.654,67.084,77.654z"/><path fill="#1f212b" d="M77.421 46.654c-.276 0-.5-.224-.5-.5v-4c0-.276.224-.5.5-.5s.5.224.5.5v4C77.921 46.43 77.698 46.654 77.421 46.654zM77.421 40.654c-.276 0-.5-.224-.5-.5v-2c0-.276.224-.5.5-.5s.5.224.5.5v2C77.921 40.43 77.698 40.654 77.421 40.654z"/><path fill="#f27c7d" d="M66.101,43.179c0,0-0.312-2.353-1.271-3.389c-1.217-1.358-2.581-1.366-3.206-1.443C57.145,38,50.428,38,50.428,38h-0.015c0,0-6.717,0-11.194,0.347c-0.625,0.077-1.988,0.085-3.206,1.443c-0.958,1.036-1.271,3.389-1.271,3.389s-0.32,2.761-0.32,5.522v2.588c0,2.763,0.32,5.523,0.32,5.523s0.312,2.352,1.271,3.386c1.218,1.358,2.816,1.317,3.528,1.459C42.101,61.919,50.421,62,50.421,62s6.724-0.012,11.202-0.355c0.625-0.08,1.989-0.088,3.206-1.446c0.958-1.034,1.271-3.386,1.271-3.386s0.32-2.761,0.32-5.523v-2.588C66.421,45.94,66.101,43.179,66.101,43.179z"/><path fill="#1f212b" d="M50.422,62.5c-0.347-0.003-8.379-0.084-10.933-0.346c-0.159-0.029-0.294-0.046-0.447-0.066c-0.848-0.109-2.267-0.292-3.401-1.557c-1.051-1.132-1.382-3.552-1.396-3.654c-0.004-0.036-0.324-2.829-0.324-5.589v-2.588c0-2.758,0.32-5.552,0.323-5.58c0.015-0.111,0.347-2.532,1.401-3.671c1.226-1.367,2.591-1.505,3.324-1.579l0.188-0.02c4.468-0.347,11.188-0.351,11.256-0.351c0.082,0,6.802,0.004,11.249,0.348l0.21,0.022c0.733,0.074,2.1,0.213,3.329,1.585c1.051,1.133,1.382,3.555,1.396,3.657c0,0.002,0,0.005,0.001,0.008c0.003,0.028,0.323,2.822,0.323,5.581v2.588c0,2.759-0.32,5.553-0.323,5.581c-0.015,0.111-0.347,2.53-1.402,3.668c-1.22,1.362-2.583,1.504-3.315,1.581l-0.193,0.021C57.216,62.484,50.49,62.5,50.422,62.5z M50.428,38.5c-0.082,0-6.765,0.004-11.17,0.345l-0.188,0.021c-0.641,0.065-1.713,0.173-2.686,1.258c-0.703,0.76-1.066,2.51-1.147,3.121c-0.003,0.019-0.316,2.758-0.316,5.456v2.588c0,2.701,0.313,5.438,0.317,5.466c0.08,0.603,0.444,2.353,1.141,3.103c0.893,0.995,2.035,1.142,2.791,1.239c0.179,0.023,0.337,0.044,0.468,0.07c2.462,0.25,10.705,0.333,10.788,0.333c0.062,0,6.751-0.016,11.159-0.354l0.191-0.021c0.641-0.067,1.712-0.179,2.681-1.26c0.701-0.757,1.066-2.507,1.147-3.118c0.003-0.019,0.316-2.758,0.316-5.458v-2.588c0-2.65-0.303-5.338-0.316-5.461c-0.083-0.615-0.447-2.361-1.143-3.111c-0.977-1.09-2.05-1.199-2.69-1.264l-0.21-0.023C57.176,38.504,50.495,38.5,50.428,38.5z"/><path fill="#fdfcee" d="M46.421 43.846L46.421 55.846 56.421 49.846z"/><path fill="#1f212b" d="M46.421,56.346c-0.085,0-0.17-0.021-0.246-0.065c-0.157-0.089-0.254-0.255-0.254-0.435v-12c0-0.18,0.097-0.346,0.254-0.435c0.155-0.089,0.348-0.086,0.503,0.006l10,6c0.151,0.09,0.243,0.253,0.243,0.429s-0.092,0.338-0.243,0.429l-10,6C46.599,56.322,46.51,56.346,46.421,56.346z M46.921,44.73v10.233l8.528-5.117L46.921,44.73z"/></svg>